<svg xmlns="http://www.w3.org/2000/svg" viewBox="0 0 1024 1024">
  <!-- Background: deep brown like old record sleeve -->
  <rect width="1024" height="1024" rx="224" fill="#6B5B4E"/>

  <!-- Plucked string waveform: extra bold, edge-to-edge -->
  <path d="
    M 30,500
    Q 70,500 110,498
    Q 150,494 190,480
    Q 230,462 270,430
    Q 310,395 350,345
    Q 390,295 425,260
    Q 460,230 485,225
    Q 510,220 530,270
    Q 550,320 575,400
    Q 600,480 625,540
    Q 650,600 675,610
    Q 700,620 723,590
    Q 745,560 765,530
    Q 785,500 805,500
    Q 825,500 840,515
    Q 855,530 867,530
    Q 879,530 891,520
    Q 903,510 920,505
    Q 940,502 960,500
    Q 980,500 1000,500
  " fill="none" stroke="#F5F0EB" stroke-width="24" stroke-linecap="round" stroke-linejoin="round"/>

  <!-- Amber rivet dot -->
  <circle cx="512" cy="680" r="18" fill="#8B7335"/>
</svg>
