<svg xmlns="http://www.w3.org/2000/svg" viewBox="0 0 1024 1024">
  <!-- Background: deep brown like old record sleeve -->
  <rect width="1024" height="1024" rx="224" fill="#6B5B4E"/>

  <!-- Plucked string waveform: bold, edge-to-edge, visible at 60px -->
  <path d="
    M 60,500
    Q 100,500 140,498
    Q 180,494 220,480
    Q 260,462 300,430
    Q 340,395 380,345
    Q 420,295 455,260
    Q 490,230 512,225
    Q 535,220 555,270
    Q 575,320 600,400
    Q 625,480 650,540
    Q 675,600 700,610
    Q 725,620 748,590
    Q 770,560 790,530
    Q 810,500 830,500
    Q 850,500 865,515
    Q 880,530 892,530
    Q 904,530 916,520
    Q 928,510 945,505
    Q 960,502 980,500
  " fill="none" stroke="#F5F0EB" stroke-width="16" stroke-linecap="round" stroke-linejoin="round"/>

  <!-- Amber rivet dot: visible at small size -->
  <circle cx="512" cy="680" r="18" fill="#8B7335"/>
</svg>
